<svg version="1.1" xmlns="http://www.w3.org/2000/svg" viewBox="0 0 1000 1000">
    <path d="M10,474.3l68.2-210.1c157.2,55.3,271.5,103.1,342.7,143.5c-18.8-178.6-28.7-301.3-29.7-368.4h215.2c-3,97.6-14.4,220-34.1,366.9c101.7-51.3,218.3-98.6,349.6-142L990,474.3c-125.4,41.3-248.3,68.8-368.7,82.6c60.2,52.1,145.1,145,254.7,278.6L698.3,960.7c-57.3-77.6-125-183.3-203.2-316.9C421.9,782.4,357.6,888,302.3,960.7l-175-125.3C241.9,694.9,324,602.1,373.4,556.8C245.9,532.3,124.7,504.8,10,474.3L10,474.3z"/>
</svg>
